Coordinates
version=1
nRows=6
nColumns=36
inDegrees=yes

Units are S.I. units (second, meters, Newtons, ...)
If the header above contains a line with 'inDegrees', this indicates whether rotational values are in degrees (yes) or radians (no).

endheader
time	pelvis_tilt	pelvis_list	pelvis_rotation	pelvis_tx	pelvis_ty	pelvis_tz	hip_flexion_r	hip_adduction_r	hip_rotation_r	knee_angle_r	knee_angle_r_beta	ankle_angle_r	subtalar_angle_r	mtp_angle_r	hip_flexion_l	hip_adduction_l	hip_rotation_l	knee_angle_l	knee_angle_l_beta	ankle_angle_l	subtalar_angle_l	mtp_angle_l	lumbar_extension	lumbar_bending	lumbar_rotation	arm_flex_r	arm_add_r	arm_rot_r	elbow_flex_r	pro_sup_r	arm_flex_l	arm_add_l	arm_rot_l	elbow_flex_l	pro_sup_l
      0.39000000	     -4.59912648	     -0.13885476	      2.00214439	      0.31878767	      0.95207698	     -0.19827183	      6.94384597	      2.78024912	     -0.72166747	     12.31229135	      0.21489002	     10.64757692	     -4.77754308	     -6.48032624	     27.79633562	      1.68116729	      1.03735150	     44.55650645	      0.77765774	     -2.23381281	    -20.78532137	     -6.48032624	     -8.71422600	      3.74028877	     -0.35110505	      3.96366639	    -14.54006640	      9.09982044	     43.67698838	    105.82963649	     -7.27038444	     -7.28008029	      1.60003210	     35.54266109	     97.68083788
      0.40000000	     -4.37105369	     -0.21490205	      1.90532751	      0.32831820	      0.95217659	     -0.19739827	      5.78622976	      2.90945236	     -0.98247956	     11.82868764	      0.20644955	     11.24814992	     -3.88285241	     -6.51111653	     27.92871074	      1.49329782	      0.68883337	     41.63370165	      0.72664517	     -2.63076298	    -21.08470321	     -6.51111653	     -9.05942764	      3.44225897	     -0.02640611	      4.50858407	    -14.87168404	      9.73574691	     43.86873607	    105.81780696	     -7.31623657	     -7.11985058	      1.10210387	     35.47116504	     97.45857584
      0.41000000	     -4.37531731	     -0.33189290	      1.84299229	      0.33789546	      0.95174293	     -0.19655188	      4.88088654	      3.09733773	     -1.06993793	     11.34276254	      0.19796855	     11.60548576	     -3.46537982	     -6.52827148	     28.29323440	      1.25972567	      0.29304239	     38.69706472	      0.67539119	     -2.84901033	    -20.93952577	     -6.52827148	     -9.06529455	      3.18298687	      0.32914157	      4.89812977	    -15.16268120	     10.10397662	     44.00741500	    105.80852098	     -7.36316712	     -7.00438704	      0.77456028	     35.34866535	     97.32876571
      0.42000000	     -4.51383425	     -0.60711191	      1.83781394	      0.34743789	      0.95089159	     -0.19580193	      4.15230137	      3.46316821	     -1.06777388	     10.90672225	      0.19035821	     11.89401822	     -3.15498723	     -6.53684430	     28.80226986	      0.91497726	      0.06688109	     35.79847627	      0.62480128	     -3.01672977	    -20.59156894	     -6.53684430	     -8.92669335	      3.11325806	      0.63889334	      5.27798592	    -15.43575491	     10.31336707	     44.16616540	    105.81222120	     -7.44050181	     -6.90376483	      0.56529218	     35.24305459	     97.25622596
      0.43000000	     -4.33016773	     -0.72512638	      1.81276142	      0.35721986	      0.95036153	     -0.19517119	      3.07605769	      3.60761214	     -1.47324971	     10.51839942	      0.18358070	     12.68801585	     -2.01448069	     -6.59309474	     28.82214404	      0.69355094	     -0.40000001	     32.70039322	      0.57072953	     -3.52308597	    -20.26303778	     -6.59309474	     -9.13681312	      2.85152995	      0.68357892	      5.97901768	    -15.73710018	     11.30078500	     43.99820907	    105.67776836	     -7.61101215	     -6.69983395	     -0.21104955	     35.19574731	     96.95076019
      0.44000000	     -4.48752953	     -1.00800795	      1.77978645	      0.36689999	      0.94918731	     -0.19447870	      2.37507022	      3.98126312	     -1.43728405	     10.09671429	      0.17622091	     12.94405577	     -1.82503130	     -6.60262313	     29.26049571	      0.32907575	     -0.70713315	     29.75433559	      0.51931112	     -3.79915272	    -19.37441687	     -6.60262313	     -8.95615936	      2.76996043	      0.98475855	      6.29830220	    -15.95586734	     11.41830869	     44.11622578	    105.66442499	     -7.69158144	     -6.60042188	     -0.36995672	     35.02953885	     96.88986737
